<svg xmlns="http://www.w3.org/2000/svg" width="102" height="102"><defs><clipPath id="A"><path d="M0 0h102v102H0z"/></clipPath></defs><g clip-path="url(#A)"><g fill="#f90" fill-rule="evenodd"><path d="M3.6 71.713c0 .454.556.937.858 1.167l2.233 1.9 1.156.95a76.56 76.56 0 0 0 7.407 5.06l2.7 1.52c.593.36 3.23 1.667 4.174 2.064l1.47.635c5.17 2.204 10.586 3.778 16.132 4.687 1.22.2 2.4.354 3.706.5 1.512.13 6.994.47 8.44.47a72.75 72.75 0 0 0 12.013-1.112c1.853-.306 3.685-.728 5.4-1.158a76.08 76.08 0 0 0 7.478-2.325 74.63 74.63 0 0 0 6.855-3.022c.37-.185.684-.385 1.052-.567a55.53 55.53 0 0 0 6-3.793l.634-1.067v-.324l-1.458-1.215a35.31 35.31 0 0 0-3.95 1.467 96.06 96.06 0 0 1-12.647 3.8 86.15 86.15 0 0 1-9.3 1.635l-10.3.715c-4.154.053-8.307-.18-12.43-.695-1.18-.163-2.207-.272-3.344-.463-2.1-.354-4.26-.7-6.26-1.193a96.55 96.55 0 0 1-14.316-4.4c-2.5-1-6.162-2.594-8.423-3.8l-1.215-.64c-1.158-.578-3.12-2.12-3.844-1.362-.122.172-.202.37-.232.578zm78.176 1.052c0 .956 1.132.556 1.8.493 2.444-.232 7.926-.87 10.172-.14a2.41 2.41 0 0 1 1.165.617l.4 1.38a23.51 23.51 0 0 1-1.327 5.8c-.2.635-1.853 4.96-1.914 5.3-.044.272.4 1.273 2.127-.465a18.76 18.76 0 0 0 4.2-6.735 34.76 34.76 0 0 0 .673-2.081l.774-4.734c.053-.688-.1-1.375-.465-1.966a4.06 4.06 0 0 0-1.755-.756l-4.497-.512a22.65 22.65 0 0 0-6.572.962c-.824.26-4.77 1.7-4.77 2.846z"/></g><text fill="#02024e" font-size="54" font-family="ArialMT, Arial"><tspan x="2" y="60">aws</tspan></text></g></svg>